<svg width="42" height="42" viewBox="0 0 42 42" fill="none" xmlns="http://www.w3.org/2000/svg">
<path d="M35.3736 28.8219C34.3331 27.2692 32.9091 25.1429 32.9091 19.0909V16.3636C32.9091 10.6098 29.0682 5.74177 23.8182 4.17247V3.63639C23.8182 1.63083 22.1865 0 20.1818 0C18.1772 0 16.5455 1.63083 16.5455 3.63639V4.17247C11.2955 5.74177 7.45451 10.6098 7.45451 16.3636V19.0909C7.45451 25.1429 6.03053 27.2692 4.98999 28.8219C4.38803 29.7212 3.81812 30.5709 3.81812 31.8182C3.81812 34.782 9.99667 35.822 15.006 36.1802C15.7084 38.4287 17.7701 40 20.1818 40C22.5934 40 24.6552 38.4287 25.3575 36.1802C30.3669 35.822 36.5454 34.782 36.5454 31.8182C36.5455 30.5709 35.9755 29.7212 35.3736 28.8219ZM18.3636 3.63639C18.3636 2.63412 19.1786 1.81824 20.1818 1.81824C21.1849 1.81824 22 2.63404 22 3.63639V3.78162C21.4045 3.69588 20.8007 3.63639 20.1818 3.63639C19.563 3.63639 18.9592 3.69588 18.3637 3.78162V3.63639H18.3636ZM20.1818 38.1818C18.823 38.1818 17.6295 37.4319 17.0096 36.2943C18.2978 36.3487 19.4164 36.3637 20.1818 36.3637C20.9474 36.3637 22.066 36.3487 23.3543 36.2943C22.7342 37.4319 21.5407 38.1818 20.1818 38.1818ZM20.1818 34.5455C11.8562 34.5455 5.63636 33.1054 5.63636 31.8182C5.63636 31.1532 5.91692 30.7049 6.50107 29.834C7.60366 28.1863 9.27275 25.696 9.27275 19.0909V16.3636C9.27275 10.348 14.1662 5.45455 20.1818 5.45455C26.1975 5.45455 31.0909 10.348 31.0909 16.3636V19.0909C31.0909 25.696 32.76 28.1863 33.8626 29.834C34.4468 30.7049 34.7273 31.1532 34.7273 31.8182C34.7273 33.1055 28.5075 34.5455 20.1818 34.5455Z" fill="#7B7B7B"/>
</svg>
