<svg width="40" height="40" viewBox="0 0 40 40" fill="none" xmlns="http://www.w3.org/2000/svg">
<path d="M18.5525 37.0808L18.5524 37.0807C16.9357 35.667 15.377 34.3386 14.0026 33.1674L13.9967 33.1623L13.9956 33.1613C9.96236 29.7243 6.49392 26.7677 4.08277 23.8584C1.39266 20.6124 0.15 17.5485 0.15 14.2087C0.15 10.956 1.26519 7.96113 3.28349 5.77184C5.32535 3.55724 8.12637 2.3375 11.1743 2.3375C13.4494 2.3375 15.5318 3.05603 17.3673 4.47565C18.2944 5.19282 19.136 6.0715 19.8784 7.09809L19.9999 7.26614L20.1215 7.09811C20.8642 6.07149 21.7055 5.19282 22.6329 4.47565L22.5412 4.35699L22.6329 4.47565C24.4685 3.05603 26.5509 2.3375 28.8259 2.3375C31.8736 2.3375 34.6749 3.55725 36.7167 5.77184C38.735 7.96111 39.8499 10.956 39.8499 14.2087C39.8499 17.5485 38.6076 20.6124 35.9175 23.8581L36.033 23.9539L35.9175 23.8581C33.5063 26.7677 30.0382 29.7239 26.0056 33.1607C24.6287 34.3337 23.0676 35.6643 21.4472 37.0813L21.4472 37.0813C21.047 37.4315 20.5328 37.6247 20 37.6247C19.4668 37.6247 18.9529 37.4315 18.5525 37.0808ZM4.78535 7.15662L4.78534 7.15663C3.11079 8.97305 2.19283 11.479 2.19283 14.2087C2.19283 17.0983 3.26938 19.6755 5.65568 22.5548C7.95509 25.3295 11.3707 28.2404 15.3086 31.5964L15.3205 31.6065L15.3217 31.6075L15.3278 31.6126C15.328 31.6127 15.3282 31.6129 15.3284 31.6131C16.708 32.7889 18.2711 34.1211 19.8979 35.5435L19.9964 35.6297L20.0951 35.5437C21.732 34.1182 23.2979 32.7836 24.6804 31.6059L24.6804 31.6059L24.7005 31.5887C28.6346 28.2357 32.0468 25.3275 34.3446 22.5548L34.2291 22.4591L34.3446 22.5548C36.7305 19.6755 37.8071 17.0983 37.8071 14.2087C37.8071 11.479 36.8891 8.97305 35.2146 7.15663L35.1043 7.2583L35.2146 7.15663C33.564 5.36628 31.2939 4.38064 28.8259 4.38064C27.0139 4.38064 25.3494 4.95739 23.8825 6.09166L23.8825 6.09168C22.5777 7.10108 21.6715 8.3744 21.1416 9.26211C20.8989 9.66879 20.4729 9.91073 20 9.91073C19.527 9.91073 19.1011 9.6688 18.8583 9.26214C18.3288 8.3744 17.4226 7.10107 16.1174 6.09167L16.1174 6.09166C14.6505 4.95739 12.986 4.38064 11.1743 4.38064C8.70603 4.38064 6.43621 5.36629 4.78535 7.15662Z" fill="#7B7B7B" stroke="white" stroke-width="0.3"/>
</svg>
