<svg width="40" height="40" viewBox="0 0 40 40" fill="none" xmlns="http://www.w3.org/2000/svg">
<path d="M26.3436 20.8025L25.7729 21.1956L26.4279 21.4216C29.2065 22.3804 31.7537 23.9644 33.8947 26.1053C37.5239 29.7346 39.5582 34.5317 39.647 39.65H37.2215C37.0345 30.3127 29.3813 22.775 20 22.775C10.6187 22.775 2.96553 30.3127 2.7785 39.65H0.353032C0.441784 34.5317 2.47612 29.7346 6.10537 26.1053C8.24633 23.9644 10.7936 22.3804 13.5721 21.4216L14.2272 21.1956L13.6565 20.8025C10.717 18.778 8.7875 15.3911 8.7875 11.5625C8.7875 5.38025 13.8178 0.35 20 0.35C26.1822 0.35 31.2125 5.38025 31.2125 11.5625C31.2125 15.3911 29.283 18.778 26.3436 20.8025ZM11.2125 11.5625C11.2125 16.4083 15.1543 20.35 20 20.35C24.8457 20.35 28.7875 16.4083 28.7875 11.5625C28.7875 6.7167 24.8457 2.775 20 2.775C15.1543 2.775 11.2125 6.7167 11.2125 11.5625Z" fill="#7B7B7B" stroke="white" stroke-width="0.7"/>
</svg>
